CrispyCond Black-MaxGrade-shadow.ufo
<glyph name="one" format="2">
  <advance width="359"/>
  <unicode hex="0031"/>
  <outline>
    <contour>
      <point x="513" y="-1" type="line"/>
      <point x="513" y="261" type="line"/>
      <point x="437" y="261" type="line"/>
      <point x="437" y="1602" type="line"/>
      <point x="19" y="1602" type="line"/>
      <point x="-132" y="1451" type="line"/>
      <point x="-132" y="1189" type="line"/>
      <point x="-56" y="1189" type="line"/>
      <point x="-56" y="186" type="line"/>
      <point x="-132" y="110" type="line"/>
      <point x="-132" y="-152" type="line"/>
      <point x="362" y="-152" type="line"/>
    </contour>
    <contour>
      <point x="-52" y="184" type="line"/>
      <point x="-52" y="1193" type="line"/>
      <point x="-128" y="1193" type="line"/>
      <point x="-128" y="1449" type="line"/>
      <point x="21" y="1598" type="line"/>
      <point x="433" y="1598" type="line"/>
      <point x="433" y="257" type="line"/>
      <point x="509" y="257" type="line"/>
      <point x="509" y="1" type="line"/>
      <point x="360" y="-148" type="line"/>
      <point x="-128" y="-148" type="line"/>
      <point x="-128" y="108" type="line"/>
    </contour>
  </outline>
</glyph>
<glyph name="three" format="2">
  <advance width="610"/>
  <unicode hex="0033"/>
  <outline>
    <contour>
      <point x="84" y="916" type="line"/>
      <point x="-67" y="765" type="line"/>
      <point x="-67" y="503" type="line"/>
      <point x="263" y="503" type="line"/>
      <point x="263" y="496" type="line"/>
      <point x="18" y="496" type="line"/>
      <point x="-133" y="345" type="line"/>
      <point x="-133" y="-152" type="line"/>
      <point x="606" y="-152" type="line"/>
      <point x="757" y="-1" type="line"/>
      <point x="757" y="917" type="line"/>
      <point x="756" y="917" type="line"/>
      <point x="756" y="1602" type="line"/>
      <point x="24" y="1602" type="line"/>
      <point x="-127" y="1451" type="line"/>
      <point x="-127" y="934" type="line"/>
      <point x="215" y="934" type="line"/>
      <point x="263" y="982" type="line"/>
      <point x="263" y="916" type="line"/>
    </contour>
    <contour>
      <point x="267" y="912" type="line"/>
      <point x="267" y="992" type="line"/>
      <point x="213" y="938" type="line"/>
      <point x="-123" y="938" type="line"/>
      <point x="-123" y="1449" type="line"/>
      <point x="26" y="1598" type="line"/>
      <point x="752" y="1598" type="line"/>
      <point x="752" y="913" type="line"/>
      <point x="753" y="913" type="line"/>
      <point x="753" y="1" type="line"/>
      <point x="604" y="-148" type="line"/>
      <point x="-129" y="-148" type="line"/>
      <point x="-129" y="343" type="line"/>
      <point x="20" y="492" type="line"/>
      <point x="267" y="492" type="line"/>
      <point x="267" y="507" type="line"/>
      <point x="-63" y="507" type="line"/>
      <point x="-63" y="763" type="line"/>
      <point x="86" y="912" type="line"/>
    </contour>
  </outline>
</glyph>
<glyph name="six" format="2">
  <advance width="618"/>
  <unicode hex="0036"/>
  <outline>
    <contour>
      <point x="621" y="-152" type="line"/>
      <point x="772" y="-1" type="line"/>
      <point x="772" y="904" type="line"/>
      <point x="367" y="904" type="line"/>
      <point x="367" y="921" type="line"/>
      <point x="620" y="921" type="line"/>
      <point x="771" y="1072" type="line"/>
      <point x="771" y="1602" type="line"/>
      <point x="112" y="1602" type="line"/>
      <point x="-39" y="1451" type="line"/>
      <point x="-127" y="1080" type="line"/>
      <point x="-127" y="-152" type="line"/>
    </contour>
    <contour>
      <point x="363" y="925" type="line"/>
      <point x="363" y="900" type="line"/>
      <point x="768" y="900" type="line"/>
      <point x="768" y="1" type="line"/>
      <point x="619" y="-148" type="line"/>
      <point x="-123" y="-148" type="line"/>
      <point x="-123" y="1080" type="line"/>
      <point x="-35" y="1449" type="line"/>
      <point x="114" y="1598" type="line"/>
      <point x="767" y="1598" type="line"/>
      <point x="767" y="1074" type="line"/>
      <point x="618" y="925" type="line"/>
    </contour>
  </outline>
</glyph>
<glyph name="seven" format="2">
  <advance width="614"/>
  <unicode hex="0037"/>
  <outline>
    <contour>
      <point x="403" y="-152" type="line"/>
      <point x="554" y="-1" type="line"/>
      <point x="768" y="1182" type="line"/>
      <point x="768" y="1602" type="line"/>
      <point x="17" y="1602" type="line"/>
      <point x="-134" y="1451" type="line"/>
      <point x="-134" y="919" type="line"/>
      <point x="209" y="919" type="line"/>
      <point x="255" y="965" type="line"/>
      <point x="60" y="-152" type="line"/>
    </contour>
    <contour>
      <point x="261" y="977" type="line"/>
      <point x="207" y="923" type="line"/>
      <point x="-130" y="923" type="line"/>
      <point x="-130" y="1449" type="line"/>
      <point x="19" y="1598" type="line"/>
      <point x="764" y="1598" type="line"/>
      <point x="764" y="1182" type="line"/>
      <point x="550" y="1" type="line"/>
      <point x="401" y="-148" type="line"/>
      <point x="64" y="-148" type="line"/>
    </contour>
  </outline>
</glyph>
<glyph name="nine" format="2">
  <advance width="653"/>
  <unicode hex="0039"/>
  <outline>
    <contour>
      <point x="807" y="-1" type="line"/>
      <point x="807" y="1602" type="line"/>
      <point x="24" y="1602" type="line"/>
      <point x="-127" y="1451" type="line"/>
      <point x="-127" y="546" type="line"/>
      <point x="314" y="546" type="line"/>
      <point x="314" y="503" type="line"/>
      <point x="25" y="503" type="line"/>
      <point x="-126" y="352" type="line"/>
      <point x="-126" y="-152" type="line"/>
      <point x="656" y="-152" type="line"/>
    </contour>
    <contour>
      <point x="318" y="499" type="line"/>
      <point x="318" y="550" type="line"/>
      <point x="-123" y="550" type="line"/>
      <point x="-123" y="1449" type="line"/>
      <point x="26" y="1598" type="line"/>
      <point x="803" y="1598" type="line"/>
      <point x="803" y="1" type="line"/>
      <point x="654" y="-148" type="line"/>
      <point x="-122" y="-148" type="line"/>
      <point x="-122" y="350" type="line"/>
      <point x="27" y="499" type="line"/>
    </contour>
  </outline>
</glyph>
<glyph name="A" format="2">
  <advance width="637"/>
  <unicode hex="0041"/>
  <outline>
    <contour>
      <point x="621" y="-152" type="line"/>
      <point x="772" y="-1" type="line"/>
      <point x="772" y="1602" type="line"/>
      <point x="129" y="1602" type="line"/>
      <point x="-22" y="1451" type="line"/>
      <point x="-127" y="1024" type="line"/>
      <point x="-127" y="-152" type="line"/>
      <point x="216" y="-152" type="line"/>
      <point x="279" y="-89" type="line"/>
      <point x="279" y="-152" type="line"/>
    </contour>
    <contour>
      <point x="283" y="-79" type="line"/>
      <point x="214" y="-148" type="line"/>
      <point x="-123" y="-148" type="line"/>
      <point x="-123" y="1024" type="line"/>
      <point x="-18" y="1449" type="line"/>
      <point x="131" y="1598" type="line"/>
      <point x="768" y="1598" type="line"/>
      <point x="768" y="1" type="line"/>
      <point x="619" y="-148" type="line"/>
      <point x="283" y="-148" type="line"/>
    </contour>
  </outline>
</glyph>
<glyph name="C" format="2">
  <advance width="622"/>
  <unicode hex="0043"/>
  <outline>
    <contour>
      <point x="773" y="530" type="line"/>
      <point x="431" y="530" type="line"/>
      <point x="367" y="466" type="line"/>
      <point x="367" y="888" type="line"/>
      <point x="624" y="888" type="line"/>
      <point x="775" y="1039" type="line"/>
      <point x="775" y="1602" type="line"/>
      <point x="111" y="1602" type="line"/>
      <point x="-40" y="1451" type="line"/>
      <point x="-127" y="1081" type="line"/>
      <point x="-127" y="-152" type="line"/>
      <point x="622" y="-152" type="line"/>
      <point x="773" y="-1" type="line"/>
    </contour>
    <contour>
      <point x="363" y="892" type="line"/>
      <point x="363" y="456" type="line"/>
      <point x="433" y="526" type="line"/>
      <point x="769" y="526" type="line"/>
      <point x="769" y="1" type="line"/>
      <point x="620" y="-148" type="line"/>
      <point x="-123" y="-148" type="line"/>
      <point x="-123" y="1081" type="line"/>
      <point x="-36" y="1449" type="line"/>
      <point x="113" y="1598" type="line"/>
      <point x="771" y="1598" type="line"/>
      <point x="771" y="1041" type="line"/>
      <point x="622" y="892" type="line"/>
    </contour>
  </outline>
</glyph>
<glyph name="D" format="2">
  <advance width="638"/>
  <unicode hex="0044"/>
  <outline>
    <contour>
      <point x="784" y="364" type="line"/>
      <point x="784" y="1602" type="line"/>
      <point x="36" y="1602" type="line"/>
      <point x="-115" y="1451" type="line"/>
      <point x="-115" y="-152" type="line"/>
      <point x="547" y="-152" type="line"/>
      <point x="698" y="-1" type="line"/>
    </contour>
    <contour>
      <point x="-111" y="-148" type="line"/>
      <point x="-111" y="1449" type="line"/>
      <point x="38" y="1598" type="line"/>
      <point x="780" y="1598" type="line"/>
      <point x="780" y="364" type="line"/>
      <point x="694" y="1" type="line"/>
      <point x="545" y="-148" type="line"/>
    </contour>
  </outline>
</glyph>
<glyph name="E" format="2">
  <advance width="559"/>
  <unicode hex="0045"/>
  <outline>
    <contour>
      <point x="713" y="484" type="line"/>
      <point x="417" y="484" type="line"/>
      <point x="378" y="445" type="line"/>
      <point x="378" y="517" type="line"/>
      <point x="480" y="517" type="line"/>
      <point x="631" y="668" type="line"/>
      <point x="631" y="930" type="line"/>
      <point x="571" y="930" type="line"/>
      <point x="712" y="1071" type="line"/>
      <point x="712" y="1602" type="line"/>
      <point x="36" y="1602" type="line"/>
      <point x="-115" y="1451" type="line"/>
      <point x="-115" y="-152" type="line"/>
      <point x="562" y="-152" type="line"/>
      <point x="713" y="-1" type="line"/>
    </contour>
    <contour>
      <point x="561" y="926" type="line"/>
      <point x="627" y="926" type="line"/>
      <point x="627" y="670" type="line"/>
      <point x="478" y="521" type="line"/>
      <point x="374" y="521" type="line"/>
      <point x="374" y="435" type="line"/>
      <point x="419" y="480" type="line"/>
      <point x="709" y="480" type="line"/>
      <point x="709" y="1" type="line"/>
      <point x="560" y="-148" type="line"/>
      <point x="-111" y="-148" type="line"/>
      <point x="-111" y="1449" type="line"/>
      <point x="38" y="1598" type="line"/>
      <point x="708" y="1598" type="line"/>
      <point x="708" y="1073" type="line"/>
    </contour>
  </outline>
</glyph>
<glyph name="F" format="2">
  <advance width="605"/>
  <unicode hex="0046"/>
  <outline>
    <contour>
      <point x="227" y="-152" type="line"/>
      <point x="378" y="-1" type="line"/>
      <point x="378" y="479" type="line"/>
      <point x="529" y="479" type="line"/>
      <point x="680" y="630" type="line"/>
      <point x="680" y="893" type="line"/>
      <point x="378" y="893" type="line"/>
      <point x="378" y="920" type="line"/>
      <point x="607" y="920" type="line"/>
      <point x="758" y="1071" type="line"/>
      <point x="758" y="1602" type="line"/>
      <point x="36" y="1602" type="line"/>
      <point x="-115" y="1451" type="line"/>
      <point x="-115" y="-152" type="line"/>
    </contour>
    <contour>
      <point x="374" y="924" type="line"/>
      <point x="374" y="889" type="line"/>
      <point x="676" y="889" type="line"/>
      <point x="676" y="632" type="line"/>
      <point x="527" y="483" type="line"/>
      <point x="374" y="483" type="line"/>
      <point x="374" y="1" type="line"/>
      <point x="225" y="-148" type="line"/>
      <point x="-111" y="-148" type="line"/>
      <point x="-111" y="1449" type="line"/>
      <point x="38" y="1598" type="line"/>
      <point x="754" y="1598" type="line"/>
      <point x="754" y="1073" type="line"/>
      <point x="605" y="924" type="line"/>
    </contour>
  </outline>
</glyph>
<glyph name="G" format="2">
  <advance width="624"/>
  <unicode hex="0047"/>
  <outline>
    <contour>
      <point x="626" y="-152" type="line"/>
      <point x="777" y="-1" type="line"/>
      <point x="777" y="887" type="line"/>
      <point x="401" y="887" type="line"/>
      <point x="367" y="853" type="line"/>
      <point x="367" y="892" type="line"/>
      <point x="622" y="892" type="line"/>
      <point x="773" y="1043" type="line"/>
      <point x="773" y="1602" type="line"/>
      <point x="113" y="1602" type="line"/>
      <point x="-38" y="1451" type="line"/>
      <point x="-127" y="1082" type="line"/>
      <point x="-127" y="-152" type="line"/>
    </contour>
    <contour>
      <point x="363" y="896" type="line"/>
      <point x="363" y="843" type="line"/>
      <point x="403" y="883" type="line"/>
      <point x="773" y="883" type="line"/>
      <point x="773" y="1" type="line"/>
      <point x="624" y="-148" type="line"/>
      <point x="-123" y="-148" type="line"/>
      <point x="-123" y="1082" type="line"/>
      <point x="-34" y="1449" type="line"/>
      <point x="115" y="1598" type="line"/>
      <point x="769" y="1598" type="line"/>
      <point x="769" y="1045" type="line"/>
      <point x="620" y="896" type="line"/>
    </contour>
  </outline>
</glyph>
<glyph name="I" format="2">
  <advance width="429"/>
  <unicode hex="0049"/>
  <outline>
    <contour>
      <point x="583" y="-1" type="line"/>
      <point x="583" y="261" type="line"/>
      <point x="471" y="261" type="line"/>
      <point x="471" y="1228" type="line"/>
      <point x="583" y="1340" type="line"/>
      <point x="583" y="1602" type="line"/>
      <point x="17" y="1602" type="line"/>
      <point x="-134" y="1451" type="line"/>
      <point x="-134" y="1189" type="line"/>
      <point x="-22" y="1189" type="line"/>
      <point x="-22" y="222" type="line"/>
      <point x="-134" y="110" type="line"/>
      <point x="-134" y="-152" type="line"/>
      <point x="432" y="-152" type="line"/>
    </contour>
    <contour>
      <point x="467" y="1230" type="line"/>
      <point x="467" y="257" type="line"/>
      <point x="579" y="257" type="line"/>
      <point x="579" y="1" type="line"/>
      <point x="430" y="-148" type="line"/>
      <point x="-130" y="-148" type="line"/>
      <point x="-130" y="108" type="line"/>
      <point x="-18" y="220" type="line"/>
      <point x="-18" y="1193" type="line"/>
      <point x="-130" y="1193" type="line"/>
      <point x="-130" y="1449" type="line"/>
      <point x="19" y="1598" type="line"/>
      <point x="579" y="1598" type="line"/>
      <point x="579" y="1342" type="line"/>
    </contour>
  </outline>
</glyph>
<glyph name="O" format="2">
  <advance width="627"/>
  <unicode hex="004F"/>
  <outline>
    <contour>
      <point x="774" y="364" type="line"/>
      <point x="774" y="1602" type="line"/>
      <point x="112" y="1602" type="line"/>
      <point x="-39" y="1451" type="line"/>
      <point x="-127" y="1081" type="line"/>
      <point x="-127" y="-152" type="line"/>
      <point x="535" y="-152" type="line"/>
      <point x="686" y="-1" type="line"/>
    </contour>
    <contour>
      <point x="-123" y="-148" type="line"/>
      <point x="-123" y="1081" type="line"/>
      <point x="-35" y="1449" type="line"/>
      <point x="114" y="1598" type="line"/>
      <point x="770" y="1598" type="line"/>
      <point x="770" y="364" type="line"/>
      <point x="682" y="1" type="line"/>
      <point x="533" y="-148" type="line"/>
    </contour>
  </outline>
</glyph>
<glyph name="P" format="2">
  <advance width="631"/>
  <unicode hex="0050"/>
  <outline>
    <contour>
      <point x="227" y="-152" type="line"/>
      <point x="378" y="-1" type="line"/>
      <point x="378" y="443" type="line"/>
      <point x="634" y="443" type="line"/>
      <point x="785" y="594" type="line"/>
      <point x="785" y="1602" type="line"/>
      <point x="36" y="1602" type="line"/>
      <point x="-115" y="1451" type="line"/>
      <point x="-115" y="-152" type="line"/>
    </contour>
    <contour>
      <point x="374" y="447" type="line"/>
      <point x="374" y="1" type="line"/>
      <point x="225" y="-148" type="line"/>
      <point x="-111" y="-148" type="line"/>
      <point x="-111" y="1449" type="line"/>
      <point x="38" y="1598" type="line"/>
      <point x="781" y="1598" type="line"/>
      <point x="781" y="596" type="line"/>
      <point x="632" y="447" type="line"/>
    </contour>
  </outline>
</glyph>
<glyph name="S" format="2">
  <advance width="595"/>
  <unicode hex="0053"/>
  <outline>
    <contour>
      <point x="511" y="-152" type="line"/>
      <point x="662" y="-1" type="line"/>
      <point x="748" y="355" type="line"/>
      <point x="748" y="949" type="line"/>
      <point x="635" y="949" type="line"/>
      <point x="742" y="1056" type="line"/>
      <point x="742" y="1602" type="line"/>
      <point x="110" y="1602" type="line"/>
      <point x="-41" y="1451" type="line"/>
      <point x="-132" y="1071" type="line"/>
      <point x="-132" y="521" type="line"/>
      <point x="-21" y="521" type="line"/>
      <point x="-133" y="409" type="line"/>
      <point x="-133" y="-152" type="line"/>
    </contour>
    <contour>
      <point x="-11" y="525" type="line"/>
      <point x="-128" y="525" type="line"/>
      <point x="-128" y="1071" type="line"/>
      <point x="-37" y="1449" type="line"/>
      <point x="112" y="1598" type="line"/>
      <point x="738" y="1598" type="line"/>
      <point x="738" y="1058" type="line"/>
      <point x="625" y="945" type="line"/>
      <point x="744" y="945" type="line"/>
      <point x="744" y="355" type="line"/>
      <point x="658" y="1" type="line"/>
      <point x="509" y="-148" type="line"/>
      <point x="-129" y="-148" type="line"/>
      <point x="-129" y="407" type="line"/>
    </contour>
  </outline>
</glyph>
<glyph name="U" format="2">
  <advance width="640"/>
  <unicode hex="0055"/>
  <outline>
    <contour>
      <point x="624" y="-152" type="line"/>
      <point x="775" y="-1" type="line"/>
      <point x="775" y="1602" type="line"/>
      <point x="433" y="1602" type="line"/>
      <point x="367" y="1536" type="line"/>
      <point x="367" y="1602" type="line"/>
      <point x="24" y="1602" type="line"/>
      <point x="-127" y="1451" type="line"/>
      <point x="-127" y="-152" type="line"/>
    </contour>
    <contour>
      <point x="363" y="1526" type="line"/>
      <point x="435" y="1598" type="line"/>
      <point x="771" y="1598" type="line"/>
      <point x="771" y="1" type="line"/>
      <point x="622" y="-148" type="line"/>
      <point x="-123" y="-148" type="line"/>
      <point x="-123" y="1449" type="line"/>
      <point x="26" y="1598" type="line"/>
      <point x="363" y="1598" type="line"/>
    </contour>
  </outline>
</glyph>
<glyph name="X" format="2">
  <advance width="636"/>
  <unicode hex="0058"/>
  <outline>
    <contour>
      <point x="631" y="-152" type="line"/>
      <point x="782" y="-1" type="line"/>
      <point x="782" y="677" type="line"/>
      <point x="729" y="751" type="line"/>
      <point x="778" y="800" type="line"/>
      <point x="778" y="1602" type="line"/>
      <point x="436" y="1602" type="line"/>
      <point x="371" y="1537" type="line"/>
      <point x="371" y="1602" type="line"/>
      <point x="28" y="1602" type="line"/>
      <point x="-123" y="1451" type="line"/>
      <point x="-123" y="770" type="line"/>
      <point x="-75" y="702" type="line"/>
      <point x="-127" y="650" type="line"/>
      <point x="-127" y="-152" type="line"/>
      <point x="216" y="-152" type="line"/>
      <point x="289" y="-79" type="line"/>
      <point x="289" y="-152" type="line"/>
    </contour>
    <contour>
      <point x="723" y="751" type="line"/>
      <point x="778" y="675" type="line"/>
      <point x="778" y="1" type="line"/>
      <point x="629" y="-148" type="line"/>
      <point x="293" y="-148" type="line"/>
      <point x="293" y="-69" type="line"/>
      <point x="214" y="-148" type="line"/>
      <point x="-123" y="-148" type="line"/>
      <point x="-123" y="648" type="line"/>
      <point x="-69" y="702" type="line"/>
      <point x="-119" y="772" type="line"/>
      <point x="-119" y="1449" type="line"/>
      <point x="30" y="1598" type="line"/>
      <point x="367" y="1598" type="line"/>
      <point x="367" y="1527" type="line"/>
      <point x="438" y="1598" type="line"/>
      <point x="774" y="1598" type="line"/>
      <point x="774" y="802" type="line"/>
    </contour>
  </outline>
</glyph>
<glyph name="Y" format="2">
  <advance width="652"/>
  <unicode hex="0059"/>
  <outline>
    <contour>
      <point x="636" y="-152" type="line"/>
      <point x="787" y="-1" type="line"/>
      <point x="787" y="1602" type="line"/>
      <point x="445" y="1602" type="line"/>
      <point x="378" y="1535" type="line"/>
      <point x="378" y="1602" type="line"/>
      <point x="36" y="1602" type="line"/>
      <point x="-115" y="1451" type="line"/>
      <point x="-115" y="518" type="line"/>
      <point x="16" y="518" type="line"/>
      <point x="-111" y="391" type="line"/>
      <point x="-111" y="-152" type="line"/>
    </contour>
    <contour>
      <point x="26" y="522" type="line"/>
      <point x="-111" y="522" type="line"/>
      <point x="-111" y="1449" type="line"/>
      <point x="38" y="1598" type="line"/>
      <point x="374" y="1598" type="line"/>
      <point x="374" y="1525" type="line"/>
      <point x="447" y="1598" type="line"/>
      <point x="783" y="1598" type="line"/>
      <point x="783" y="1" type="line"/>
      <point x="634" y="-148" type="line"/>
      <point x="-107" y="-148" type="line"/>
      <point x="-107" y="389" type="line"/>
    </contour>
  </outline>
</glyph>
<glyph name="C.wide" format="2">
  <advance width="675"/>
  <outline>
    <contour>
      <point x="827" y="1602" type="line"/>
      <point x="133" y="1602" type="line"/>
      <point x="-18" y="1451" type="line"/>
      <point x="-105" y="962" type="line"/>
      <point x="-105" y="-152" type="line"/>
      <point x="677" y="-152" type="line"/>
      <point x="828" y="-1" type="line"/>
      <point x="828" y="261" type="line"/>
      <point x="388" y="261" type="line"/>
      <point x="388" y="1092" type="line"/>
      <point x="405" y="1189" type="line"/>
      <point x="676" y="1189" type="line"/>
      <point x="827" y="1340" type="line"/>
    </contour>
    <contour>
      <point x="384" y="1092" type="line"/>
      <point x="384" y="257" type="line"/>
      <point x="824" y="257" type="line"/>
      <point x="824" y="1" type="line"/>
      <point x="675" y="-148" type="line"/>
      <point x="-101" y="-148" type="line"/>
      <point x="-101" y="962" type="line"/>
      <point x="-14" y="1449" type="line"/>
      <point x="135" y="1598" type="line"/>
      <point x="823" y="1598" type="line"/>
      <point x="823" y="1342" type="line"/>
      <point x="674" y="1193" type="line"/>
      <point x="401" y="1193" type="line"/>
    </contour>
  </outline>
</glyph>
<glyph name="E.wide" format="2">
  <advance width="461"/>
  <outline>
    <contour>
      <point x="614" y="-1" type="line"/>
      <point x="614" y="251" type="line"/>
      <point x="378" y="251" type="line"/>
      <point x="378" y="529" type="line"/>
      <point x="431" y="529" type="line"/>
      <point x="582" y="680" type="line"/>
      <point x="582" y="921" type="line"/>
      <point x="378" y="921" type="line"/>
      <point x="378" y="1205" type="line"/>
      <point x="462" y="1205" type="line"/>
      <point x="613" y="1356" type="line"/>
      <point x="613" y="1602" type="line"/>
      <point x="36" y="1602" type="line"/>
      <point x="-115" y="1451" type="line"/>
      <point x="-115" y="-152" type="line"/>
      <point x="463" y="-152" type="line"/>
    </contour>
    <contour>
      <point x="374" y="533" type="line"/>
      <point x="374" y="247" type="line"/>
      <point x="610" y="247" type="line"/>
      <point x="610" y="1" type="line"/>
      <point x="461" y="-148" type="line"/>
      <point x="-111" y="-148" type="line"/>
      <point x="-111" y="1449" type="line"/>
      <point x="38" y="1598" type="line"/>
      <point x="609" y="1598" type="line"/>
      <point x="609" y="1358" type="line"/>
      <point x="460" y="1209" type="line"/>
      <point x="374" y="1209" type="line"/>
      <point x="374" y="917" type="line"/>
      <point x="578" y="917" type="line"/>
      <point x="578" y="682" type="line"/>
      <point x="429" y="533" type="line"/>
    </contour>
  </outline>
</glyph>
<glyph name="G.wide" format="2">
  <advance width="679"/>
  <outline>
    <contour>
      <point x="655" y="-152" type="line"/>
      <point x="806" y="-1" type="line"/>
      <point x="806" y="866" type="line"/>
      <point x="401" y="866" type="line"/>
      <point x="367" y="832" type="line"/>
      <point x="367" y="1133" type="line"/>
      <point x="376" y="1189" type="line"/>
      <point x="655" y="1189" type="line"/>
      <point x="806" y="1340" type="line"/>
      <point x="806" y="1602" type="line"/>
      <point x="88" y="1602" type="line"/>
      <point x="-63" y="1451" type="line"/>
      <point x="-127" y="991" type="line"/>
      <point x="-127" y="-152" type="line"/>
    </contour>
    <contour>
      <point x="372" y="1193" type="line"/>
      <point x="363" y="1133" type="line"/>
      <point x="363" y="822" type="line"/>
      <point x="403" y="862" type="line"/>
      <point x="802" y="862" type="line"/>
      <point x="802" y="1" type="line"/>
      <point x="653" y="-148" type="line"/>
      <point x="-123" y="-148" type="line"/>
      <point x="-123" y="991" type="line"/>
      <point x="-59" y="1449" type="line"/>
      <point x="90" y="1598" type="line"/>
      <point x="802" y="1598" type="line"/>
      <point x="802" y="1342" type="line"/>
      <point x="653" y="1193" type="line"/>
    </contour>
  </outline>
</glyph>
<glyph name="L.wide" format="2">
  <advance width="560"/>
  <outline>
    <contour>
      <point x="714" y="-1" type="line"/>
      <point x="714" y="261" type="line"/>
      <point x="386" y="261" type="line"/>
      <point x="386" y="1602" type="line"/>
      <point x="44" y="1602" type="line"/>
      <point x="-107" y="1451" type="line"/>
      <point x="-107" y="-152" type="line"/>
      <point x="563" y="-152" type="line"/>
    </contour>
    <contour>
      <point x="382" y="257" type="line"/>
      <point x="710" y="257" type="line"/>
      <point x="710" y="1" type="line"/>
      <point x="561" y="-148" type="line"/>
      <point x="-103" y="-148" type="line"/>
      <point x="-103" y="1449" type="line"/>
      <point x="46" y="1598" type="line"/>
      <point x="382" y="1598" type="line"/>
    </contour>
  </outline>
</glyph>
<glyph name="M.narrow" format="2">
  <advance width="1041"/>
  <outline>
    <contour>
      <point x="1038" y="-152" type="line"/>
      <point x="1189" y="-1" type="line"/>
      <point x="1189" y="1602" type="line"/>
      <point x="123" y="1602" type="line"/>
      <point x="-28" y="1451" type="line"/>
      <point x="-115" y="1080" type="line"/>
      <point x="-115" y="-152" type="line"/>
      <point x="227" y="-152" type="line"/>
      <point x="290" y="-89" type="line"/>
      <point x="290" y="-152" type="line"/>
      <point x="632" y="-152" type="line"/>
      <point x="695" y="-89" type="line"/>
      <point x="695" y="-152" type="line"/>
    </contour>
    <contour>
      <point x="699" y="-79" type="line"/>
      <point x="630" y="-148" type="line"/>
      <point x="294" y="-148" type="line"/>
      <point x="294" y="-79" type="line"/>
      <point x="225" y="-148" type="line"/>
      <point x="-111" y="-148" type="line"/>
      <point x="-111" y="1080" type="line"/>
      <point x="-24" y="1449" type="line"/>
      <point x="125" y="1598" type="line"/>
      <point x="1185" y="1598" type="line"/>
      <point x="1185" y="1" type="line"/>
      <point x="1036" y="-148" type="line"/>
      <point x="699" y="-148" type="line"/>
    </contour>
  </outline>
</glyph>
<glyph name="N.wide" format="2">
  <advance width="900"/>
  <outline>
    <contour>
      <point x="225" y="-152" type="line"/>
      <point x="376" y="-1" type="line"/>
      <point x="376" y="521" type="line"/>
      <point x="541" y="-152" type="line"/>
      <point x="886" y="-152" type="line"/>
      <point x="1037" y="-1" type="line"/>
      <point x="1037" y="1602" type="line"/>
      <point x="694" y="1602" type="line"/>
      <point x="543" y="1451" type="line"/>
      <point x="543" y="993" type="line"/>
      <point x="398" y="1602" type="line"/>
      <point x="34" y="1602" type="line"/>
      <point x="-117" y="1451" type="line"/>
      <point x="-117" y="-152" type="line"/>
    </contour>
    <contour>
      <point x="374" y="548" type="line"/>
      <point x="372" y="548" type="line"/>
      <point x="372" y="1" type="line"/>
      <point x="223" y="-148" type="line"/>
      <point x="-113" y="-148" type="line"/>
      <point x="-113" y="1449" type="line"/>
      <point x="36" y="1598" type="line"/>
      <point x="394" y="1598" type="line"/>
      <point x="545" y="966" type="line"/>
      <point x="547" y="966" type="line"/>
      <point x="547" y="1449" type="line"/>
      <point x="696" y="1598" type="line"/>
      <point x="1033" y="1598" type="line"/>
      <point x="1033" y="1" type="line"/>
      <point x="884" y="-148" type="line"/>
      <point x="545" y="-148" type="line"/>
    </contour>
  </outline>
</glyph>
<glyph name="R.wide" format="2">
  <advance width="639"/>
  <outline>
    <contour>
      <point x="641" y="-152" type="line"/>
      <point x="792" y="-1" type="line"/>
      <point x="708" y="503" type="line"/>
      <point x="785" y="580" type="line"/>
      <point x="785" y="1602" type="line"/>
      <point x="36" y="1602" type="line"/>
      <point x="-115" y="1451" type="line"/>
      <point x="-115" y="-152" type="line"/>
      <point x="227" y="-152" type="line"/>
      <point x="291" y="-88" type="line"/>
      <point x="298" y="-152" type="line"/>
    </contour>
    <contour>
      <point x="704" y="505" type="line"/>
      <point x="788" y="1" type="line"/>
      <point x="639" y="-148" type="line"/>
      <point x="302" y="-148" type="line"/>
      <point x="293" y="-80" type="line"/>
      <point x="225" y="-148" type="line"/>
      <point x="-111" y="-148" type="line"/>
      <point x="-111" y="1449" type="line"/>
      <point x="38" y="1598" type="line"/>
      <point x="781" y="1598" type="line"/>
      <point x="781" y="582" type="line"/>
    </contour>
  </outline>
</glyph>
<glyph name="five.wide" format="2">
  <advance width="617"/>
  <outline>
    <contour>
      <point x="770" y="-1" type="line"/>
      <point x="770" y="931" type="line"/>
      <point x="360" y="931" type="line"/>
      <point x="360" y="1189" type="line"/>
      <point x="619" y="1189" type="line"/>
      <point x="770" y="1340" type="line"/>
      <point x="770" y="1602" type="line"/>
      <point x="17" y="1602" type="line"/>
      <point x="-134" y="1451" type="line"/>
      <point x="-134" y="517" type="line"/>
      <point x="277" y="517" type="line"/>
      <point x="277" y="261" type="line"/>
      <point x="19" y="261" type="line"/>
      <point x="-132" y="110" type="line"/>
      <point x="-132" y="-152" type="line"/>
      <point x="619" y="-152" type="line"/>
    </contour>
    <contour>
      <point x="281" y="257" type="line"/>
      <point x="281" y="521" type="line"/>
      <point x="-130" y="521" type="line"/>
      <point x="-130" y="1449" type="line"/>
      <point x="19" y="1598" type="line"/>
      <point x="766" y="1598" type="line"/>
      <point x="766" y="1342" type="line"/>
      <point x="617" y="1193" type="line"/>
      <point x="356" y="1193" type="line"/>
      <point x="356" y="927" type="line"/>
      <point x="766" y="927" type="line"/>
      <point x="766" y="1" type="line"/>
      <point x="617" y="-148" type="line"/>
      <point x="-128" y="-148" type="line"/>
      <point x="-128" y="108" type="line"/>
      <point x="21" y="257" type="line"/>
    </contour>
  </outline>
</glyph>
<glyph name="nine.wide" format="2">
  <advance width="707"/>
  <outline>
    <contour>
      <point x="830" y="-1" type="line"/>
      <point x="830" y="1602" type="line"/>
      <point x="47" y="1602" type="line"/>
      <point x="-104" y="1451" type="line"/>
      <point x="-104" y="518" type="line"/>
      <point x="336" y="518" type="line"/>
      <point x="336" y="261" type="line"/>
      <point x="48" y="261" type="line"/>
      <point x="-103" y="110" type="line"/>
      <point x="-103" y="-152" type="line"/>
      <point x="679" y="-152" type="line"/>
    </contour>
    <contour>
      <point x="340" y="257" type="line"/>
      <point x="340" y="522" type="line"/>
      <point x="-100" y="522" type="line"/>
      <point x="-100" y="1449" type="line"/>
      <point x="49" y="1598" type="line"/>
      <point x="826" y="1598" type="line"/>
      <point x="826" y="1" type="line"/>
      <point x="677" y="-148" type="line"/>
      <point x="-99" y="-148" type="line"/>
      <point x="-99" y="108" type="line"/>
      <point x="50" y="257" type="line"/>
    </contour>
  </outline>
</glyph>
<glyph name="seven.alt" format="2">
  <advance width="642"/>
  <outline>
    <contour>
      <point x="629" y="-152" type="line"/>
      <point x="783" y="2" type="line"/>
      <point x="630" y="2" type="line"/>
      <point x="630" y="1452" type="line"/>
      <point x="30" y="1452" type="line"/>
      <point x="30" y="1605" type="line"/>
      <point x="-124" y="1451" type="line"/>
      <point x="-124" y="717" type="line"/>
      <point x="218" y="717" type="line"/>
      <point x="287" y="786" type="line"/>
      <point x="287" y="-152" type="line"/>
    </contour>
    <contour>
      <point x="291" y="796" type="line"/>
      <point x="216" y="721" type="line"/>
      <point x="-120" y="721" type="line"/>
      <point x="-120" y="1449" type="line"/>
      <point x="26" y="1595" type="line"/>
      <point x="26" y="1448" type="line"/>
      <point x="626" y="1448" type="line"/>
      <point x="626" y="-2" type="line"/>
      <point x="773" y="-2" type="line"/>
      <point x="627" y="-148" type="line"/>
      <point x="291" y="-148" type="line"/>
    </contour>
    <contour>
      <point x="215" y="867" type="line"/>
      <point x="291" y="867" type="line"/>
      <point x="291" y="1193" type="line"/>
      <point x="215" y="1193" type="line"/>
    </contour>
    <contour>
      <point x="219" y="871" type="line"/>
      <point x="219" y="1189" type="line"/>
      <point x="287" y="1189" type="line"/>
      <point x="287" y="871" type="line"/>
    </contour>
  </outline>
</glyph>
<glyph name="six.wide" format="2">
  <advance width="707"/>
  <outline>
    <contour>
      <point x="678" y="-152" type="line"/>
      <point x="829" y="-1" type="line"/>
      <point x="829" y="876" type="line"/>
      <point x="389" y="876" type="line"/>
      <point x="389" y="1189" type="line"/>
      <point x="677" y="1189" type="line"/>
      <point x="828" y="1340" type="line"/>
      <point x="828" y="1602" type="line"/>
      <point x="88" y="1602" type="line"/>
      <point x="-63" y="1451" type="line"/>
      <point x="-104" y="1066" type="line"/>
      <point x="-104" y="-152" type="line"/>
    </contour>
    <contour>
      <point x="385" y="1193" type="line"/>
      <point x="385" y="872" type="line"/>
      <point x="825" y="872" type="line"/>
      <point x="825" y="1" type="line"/>
      <point x="676" y="-148" type="line"/>
      <point x="-100" y="-148" type="line"/>
      <point x="-100" y="1066" type="line"/>
      <point x="-59" y="1449" type="line"/>
      <point x="90" y="1598" type="line"/>
      <point x="824" y="1598" type="line"/>
      <point x="824" y="1342" type="line"/>
      <point x="675" y="1193" type="line"/>
    </contour>
  </outline>
</glyph>
<glyph name="two.wide" format="2">
  <advance width="635"/>
  <outline>
    <contour>
      <point x="784" y="1602" type="line"/>
      <point x="21" y="1602" type="line"/>
      <point x="-130" y="1451" type="line"/>
      <point x="-130" y="1189" type="line"/>
      <point x="290" y="1189" type="line"/>
      <point x="290" y="922" type="line"/>
      <point x="16" y="922" type="line"/>
      <point x="-135" y="771" type="line"/>
      <point x="-135" y="-152" type="line"/>
      <point x="630" y="-152" type="line"/>
      <point x="781" y="-1" type="line"/>
      <point x="780" y="261" type="line"/>
      <point x="359" y="261" type="line"/>
      <point x="359" y="509" type="line"/>
      <point x="633" y="509" type="line"/>
      <point x="784" y="660" type="line"/>
    </contour>
    <contour>
      <point x="355" y="513" type="line"/>
      <point x="355" y="257" type="line"/>
      <point x="776" y="257" type="line"/>
      <point x="777" y="1" type="line"/>
      <point x="628" y="-148" type="line"/>
      <point x="-131" y="-148" type="line"/>
      <point x="-131" y="769" type="line"/>
      <point x="18" y="918" type="line"/>
      <point x="294" y="918" type="line"/>
      <point x="294" y="1193" type="line"/>
      <point x="-126" y="1193" type="line"/>
      <point x="-126" y="1449" type="line"/>
      <point x="23" y="1598" type="line"/>
      <point x="780" y="1598" type="line"/>
      <point x="780" y="662" type="line"/>
      <point x="631" y="513" type="line"/>
    </contour>
  </outline>
</glyph>
